<svg xmlns="http://www.w3.org/2000/svg" width="1100" height="760" viewBox="0 0 1100 760">
<rect width="100%" height="100%" fill="white"/>
<style>text{font-family:Arial,Helvetica,sans-serif;fill:currentColor}.title{font-size:26px;font-weight:700}.sub{font-size:15px}.lab{font-size:15px}.cell{font-size:14px;font-weight:700}.group{font-size:17px;font-weight:700}</style>
<text x="40" y="45" class="title">H7: Context-dependent xG-rate difference</text><text x="40" y="72" class="sub">Synthetic XI minus Real Best XI; darker cells indicate larger absolute differences</text>
<text x="460" y="110" text-anchor="middle" class="group">First Half</text><text x="660" y="110" text-anchor="middle" class="group">Second Half</text><text x="860" y="110" text-anchor="middle" class="group">Extra Time</text>
<text x="40" y="155" class="group">Leading</text><text x="150" y="155" class="lab">Equal</text><rect x="360" y="130" width="192" height="54" fill="currentColor" opacity="0.481" rx="4"/><text x="456" y="161" text-anchor="middle" class="cell" fill="white">-0.0040</text><rect x="560" y="130" width="192" height="54" fill="currentColor" opacity="0.461" rx="4"/><text x="656" y="161" text-anchor="middle" class="cell" fill="white">-0.0038</text><rect x="760" y="130" width="192" height="54" fill="currentColor" opacity="0.088" rx="4"/><text x="856" y="161" text-anchor="middle" class="cell">-0.0001</text>
<text x="40" y="217" class="group">Leading</text><text x="150" y="217" class="lab">Inferior</text><rect x="360" y="192" width="192" height="54" fill="currentColor" opacity="0.085" rx="4"/><text x="456" y="223" text-anchor="middle" class="cell">-0.0000</text><rect x="560" y="192" width="192" height="54" fill="currentColor" opacity="0.103" rx="4"/><text x="656" y="223" text-anchor="middle" class="cell">-0.0002</text><rect x="760" y="192" width="192" height="54" fill="currentColor" opacity="0.081" rx="4"/><text x="856" y="223" text-anchor="middle" class="cell">+0.0000</text>
<text x="40" y="279" class="group">Leading</text><text x="150" y="279" class="lab">Superior</text><rect x="360" y="254" width="192" height="54" fill="currentColor" opacity="0.093" rx="4"/><text x="456" y="285" text-anchor="middle" class="cell">-0.0001</text><rect x="560" y="254" width="192" height="54" fill="currentColor" opacity="0.116" rx="4"/><text x="656" y="285" text-anchor="middle" class="cell">-0.0004</text><rect x="760" y="254" width="192" height="54" fill="currentColor" opacity="0.082" rx="4"/><text x="856" y="285" text-anchor="middle" class="cell">-0.0000</text>
<text x="40" y="341" class="group">Tied</text><text x="150" y="341" class="lab">Equal</text><rect x="360" y="316" width="192" height="54" fill="currentColor" opacity="0.800" rx="4"/><text x="456" y="347" text-anchor="middle" class="cell" fill="white">-0.0071</text><rect x="560" y="316" width="192" height="54" fill="currentColor" opacity="0.278" rx="4"/><text x="656" y="347" text-anchor="middle" class="cell">-0.0020</text><rect x="760" y="316" width="192" height="54" fill="currentColor" opacity="0.081" rx="4"/><text x="856" y="347" text-anchor="middle" class="cell">-0.0000</text>
<text x="40" y="403" class="group">Tied</text><text x="150" y="403" class="lab">Inferior</text><rect x="360" y="378" width="192" height="54" fill="currentColor" opacity="0.087" rx="4"/><text x="456" y="409" text-anchor="middle" class="cell">-0.0001</text><rect x="560" y="378" width="192" height="54" fill="currentColor" opacity="0.085" rx="4"/><text x="656" y="409" text-anchor="middle" class="cell">+0.0001</text><rect x="760" y="378" width="192" height="54" fill="currentColor" opacity="0.083" rx="4"/><text x="856" y="409" text-anchor="middle" class="cell">-0.0000</text>
<text x="40" y="465" class="group">Tied</text><text x="150" y="465" class="lab">Superior</text><rect x="360" y="440" width="192" height="54" fill="currentColor" opacity="0.088" rx="4"/><text x="456" y="471" text-anchor="middle" class="cell">-0.0001</text><rect x="560" y="440" width="192" height="54" fill="currentColor" opacity="0.103" rx="4"/><text x="656" y="471" text-anchor="middle" class="cell">-0.0002</text><rect x="760" y="440" width="192" height="54" fill="currentColor" opacity="0.081" rx="4"/><text x="856" y="471" text-anchor="middle" class="cell">-0.0000</text>
<text x="40" y="527" class="group">Trailing</text><text x="150" y="527" class="lab">Equal</text><rect x="360" y="502" width="192" height="54" fill="currentColor" opacity="0.104" rx="4"/><text x="456" y="533" text-anchor="middle" class="cell">+0.0002</text><rect x="560" y="502" width="192" height="54" fill="currentColor" opacity="0.265" rx="4"/><text x="656" y="533" text-anchor="middle" class="cell">+0.0018</text><rect x="760" y="502" width="192" height="54" fill="currentColor" opacity="0.093" rx="4"/><text x="856" y="533" text-anchor="middle" class="cell">+0.0001</text>
<text x="40" y="589" class="group">Trailing</text><text x="150" y="589" class="lab">Inferior</text><rect x="360" y="564" width="192" height="54" fill="currentColor" opacity="0.081" rx="4"/><text x="456" y="595" text-anchor="middle" class="cell">+0.0000</text><rect x="560" y="564" width="192" height="54" fill="currentColor" opacity="0.097" rx="4"/><text x="656" y="595" text-anchor="middle" class="cell">+0.0002</text><rect x="760" y="564" width="192" height="54" fill="currentColor" opacity="0.083" rx="4"/><text x="856" y="595" text-anchor="middle" class="cell">-0.0000</text>
<text x="40" y="651" class="group">Trailing</text><text x="150" y="651" class="lab">Superior</text><rect x="360" y="626" width="192" height="54" fill="currentColor" opacity="0.080" rx="4"/><text x="456" y="657" text-anchor="middle" class="cell">+0.0000</text><rect x="560" y="626" width="192" height="54" fill="currentColor" opacity="0.104" rx="4"/><text x="656" y="657" text-anchor="middle" class="cell">+0.0002</text><rect x="760" y="626" width="192" height="54" fill="currentColor" opacity="0.082" rx="4"/><text x="856" y="657" text-anchor="middle" class="cell">+0.0000</text>
<text x="40" y="720" class="sub">Largest pattern: Synthetic XI is lower when tied at equal strength, but increases xG rate when trailing in the second half.</text>
</svg>